PathFileType	4	(X/Y/Z)	 s01c0302.trc
DataRate	CameraRate	NumFrames	NumMarkers	Units	OrigDataRate	OrigDataStartFrame	OrigNumFrames
200	200	4	48	mm	200	501	2000
Frame#	Time	racr			lacr			c7			jug			rlel			rdr			llel			ldr			s2			lic			ric			lasi			rasi			rpsi			lpsi			rgt			lgt			rth1			rth2			rth3			rth4			rlfc			rsh1			rsh2			rsh3			rsh4			rlmal			rmmal			rcal			rtoe			rmt5			lth1			lth2			lth4			lth3			llfc			lsh1			lsh2			lsh3			lsh4			llmal			lmmal			lcal			ltoe			lmt5			SBIKE			LBIKE			RBIKE			
		X1	Y1	Z1	X2	Y2	Z2	X3	Y3	Z3	X4	Y4	Z4	X5	Y5	Z5	X6	Y6	Z6	X7	Y7	Z7	X8	Y8	Z8	X9	Y9	Z9	X10	Y10	Z10	X11	Y11	Z11	X12	Y12	Z12	X13	Y13	Z13	X14	Y14	Z14	X15	Y15	Z15	X16	Y16	Z16	X17	Y17	Z17	X18	Y18	Z18	X19	Y19	Z19	X20	Y20	Z20	X21	Y21	Z21	X22	Y22	Z22	X23	Y23	Z23	X24	Y24	Z24	X25	Y25	Z25	X26	Y26	Z26	X27	Y27	Z27	X28	Y28	Z28	X29	Y29	Z29	X30	Y30	Z30	X31	Y31	Z31	X32	Y32	Z32	X33	Y33	Z33	X34	Y34	Z34	X35	Y35	Z35	X36	Y36	Z36	X37	Y37	Z37	X38	Y38	Z38	X39	Y39	Z39	X40	Y40	Z40	X41	Y41	Z41	X42	Y42	Z42	X43	Y43	Z43	X44	Y44	Z44	X45	Y45	Z45	X46	Y46	Z46	X47	Y47	Z47	X48	Y48	Z48	
501	2.5050	655.001943	1369.412895	-103.592378	653.807477	1346.133848	-437.494633	616.784370	1448.839335	-263.150866	617.823016	1283.816255	-265.020303	634.293611	1090.037182	-4.150133	743.532493	854.065444	-58.100917	592.201360	1073.570266	-546.473333	730.767721	883.022112	-438.232550	91.463033	1216.939648	-219.203892	236.137456	1251.454199	-412.458979	270.903667	1192.741729	-92.560735	243.092135	1192.630733	-391.573718	286.674793	1145.647615	-124.464568	129.689708	1244.134189	-168.349658	110.768096	1263.566185	-269.471749	195.531774	1073.466123	-70.945009	190.862110	1130.241103	-447.821167	236.403343	960.334907	-53.804999	265.725971	883.292307	-60.799654	291.920762	797.741715	-68.772257	317.778535	900.907053	-74.203920	300.248227	680.805633	-93.168162	250.016092	576.285902	-60.294626	229.405535	494.282766	-64.617272	200.241638	410.599810	-74.264818	277.814388	481.139652	-98.628746	155.759094	303.401034	-97.523640	194.106570	299.053960	-170.448421	115.490805	313.263049	-150.472091	297.780548	111.856867	-133.967209	200.233051	161.306103	-66.455403	283.449664	1052.166934	-465.233267	370.170044	1032.549485	-473.413745	384.453170	1083.162953	-457.869120	450.207853	1001.402508	-465.560283	539.241204	925.407502	-455.299934	449.072059	864.939124	-473.550048	393.086299	798.086503	-461.338625	337.546320	736.236371	-441.825457	438.975283	766.105577	-436.486857	253.793764	635.742620	-416.919320	284.467118	633.128357	-336.252167	193.741616	629.389431	-371.751375	414.439318	461.685278	-368.657413	317.494480	500.570637	-439.356891	-224.007159	893.267434	-251.138255	-12.487277	85.226234	-455.896664	-21.447128	80.898737	-55.742067	
502	2.5100	655.583044	1367.856171	-104.007741	653.603244	1346.451850	-437.770802	617.379054	1448.207525	-263.304285	617.887111	1283.141710	-265.815290	634.265702	1088.841012	-3.302519	742.921873	853.144088	-58.874819	588.899266	1073.461190	-546.611598	730.210169	884.501508	-438.592991	91.659112	1218.986716	-218.297924	236.107105	1253.483532	-411.275015	270.682345	1194.294556	-91.650407	242.494886	1193.612431	-390.696148	286.394154	1146.839599	-123.612823	129.748699	1245.846376	-167.196377	110.712073	1265.743119	-268.455018	195.786536	1074.810544	-69.998022	189.443968	1132.768913	-446.501535	238.867388	961.403969	-53.894398	269.262183	884.802818	-61.323472	296.650022	799.722719	-70.196510	320.941058	903.244702	-74.765414	304.298312	683.088787	-93.625540	251.888414	579.604723	-60.846912	229.500752	498.068148	-65.110663	198.580818	415.004681	-74.604723	277.797456	483.772091	-98.783963	151.820103	308.549136	-96.978945	200.502251	307.660352	-167.522783	111.821285	319.395168	-151.217961	287.899013	112.461409	-134.024455	192.005012	164.945119	-66.609730	281.865140	1053.522272	-463.154306	368.408076	1033.461837	-470.796582	383.001923	1084.084209	-456.015152	448.473242	1002.073981	-463.026134	539.765052	926.639168	-450.756573	450.158487	863.950553	-470.612107	395.389646	795.859272	-459.397715	340.552694	732.985267	-440.767181	441.664164	764.726454	-434.259690	257.690086	630.427552	-416.437632	288.228949	628.308588	-336.049995	197.329100	621.685421	-371.749198	423.725135	462.075086	-368.780702	325.367085	497.333324	-439.271753	-223.979653	893.354194	-250.990900	-12.489531	85.283453	-455.863248	-21.418438	80.937096	-55.693448	
503	2.5150	655.989783	1366.432461	-104.345547	653.189335	1346.744154	-438.036459	617.862737	1447.557695	-263.507791	617.840805	1282.423942	-266.732744	633.737204	1087.668325	-2.347152	742.648320	852.840469	-58.480546	586.137823	1073.496033	-546.800644	729.760424	885.756305	-438.832476	91.631366	1221.059470	-217.303190	236.210912	1255.498912	-410.125797	270.579337	1195.807096	-90.714718	242.013349	1194.344977	-389.871537	286.468070	1147.876220	-122.654286	129.809451	1247.540464	-166.163141	110.761236	1267.767424	-267.556620	195.940019	1076.035766	-68.998679	188.083466	1135.300273	-445.141349	241.448878	962.447996	-54.057705	273.122509	886.388565	-62.044880	301.971791	801.787744	-71.869797	324.400842	905.646317	-75.257229	309.122418	685.546661	-94.238069	254.509621	583.054898	-61.511839	230.279666	502.066099	-65.812549	197.395608	419.775063	-75.171254	278.255406	486.588302	-99.294676	147.640650	313.984716	-96.934029	196.033242	311.592933	-168.131235	107.695410	325.577226	-151.088909	278.130425	113.822836	-134.222509	183.949871	169.210938	-66.916246	280.324160	1054.462469	-461.067193	366.697569	1033.915327	-468.344443	381.561782	1084.611809	-453.884698	446.565443	1002.005804	-460.533903	539.231658	926.270581	-447.090105	451.007355	861.905661	-467.288837	397.235024	792.672341	-457.349016	343.384407	728.902057	-439.382609	443.918828	762.084054	-431.972861	261.049533	624.271155	-415.996288	291.259684	622.858829	-335.435682	200.621960	613.087148	-371.768249	432.618553	462.070151	-368.774748	332.899066	493.484212	-439.364220	-223.965925	893.404862	-250.923111	-12.496182	85.313792	-455.840195	-21.419165	80.962880	-55.654613	
504	2.5200	656.200438	1365.350454	-104.667189	652.586675	1347.005736	-438.287495	618.202026	1446.894329	-263.747589	617.610083	1281.724425	-267.622199	632.642131	1086.524620	-1.353841	742.710622	852.933586	-57.237899	583.901696	1073.799399	-547.076262	729.228786	886.873725	-439.003135	91.682530	1223.038724	-216.352318	236.305310	1257.460039	-408.864658	270.451909	1197.197378	-89.868136	241.643005	1194.835305	-389.103029	286.080810	1148.829483	-121.893813	129.878823	1249.114719	-165.192348	111.006985	1269.673193	-266.756741	196.030903	1077.253772	-68.066547	186.709420	1137.623176	-443.534143	244.295716	963.441911	-53.975951	277.314427	887.895451	-62.814403	307.705926	803.864370	-73.463241	328.066430	908.151195	-75.687120	314.657635	687.920482	-95.124086	257.746012	586.566870	-62.269086	231.498634	506.158387	-66.553440	196.560789	424.763147	-75.920842	278.869140	489.623533	-100.328236	143.357716	319.840845	-97.053806	191.928015	316.279443	-168.858428	103.289057	331.968270	-151.338040	268.542685	116.008899	-134.402769	175.981049	173.979087	-67.348278	278.696721	1054.923837	-459.082873	364.984985	1033.745865	-465.941751	380.137406	1084.324214	-451.435860	444.497547	1001.151375	-458.100108	538.387518	924.535335	-443.625614	451.408441	858.723570	-463.883871	398.659802	788.474127	-455.216545	345.757359	723.830512	-437.669975	445.670113	758.466241	-429.752428	264.326334	616.575805	-415.098450	293.953759	616.539698	-334.738598	203.729401	603.574869	-371.840136	441.072485	461.442943	-368.946218	340.264710	488.939996	-439.642582	-223.954774	893.418603	-250.883488	-12.500967	85.324825	-455.826924	-21.393012	80.954698	-55.661817	
